<mxfile host="app.diagrams.net" agent="Mozilla/5.0 (Windows NT 10.0; Win64; x64) AppleWebKit/537.36 (KHTML, like Gecko) Chrome/138.0.0.0 Safari/537.36" version="28.0.7">
  <diagram name="第 1 页" id="UpxXz_K2jLsMMCfjwP4b">
    <mxGraphModel dx="1389" dy="831" grid="1" gridSize="10" guides="1" tooltips="1" connect="1" arrows="1" fold="1" page="1" pageScale="1" pageWidth="827" pageHeight="1169" math="0" shadow="0">
      <root>
        <mxCell id="0" />
        <mxCell id="1" parent="0" />
        <mxCell id="2LB2E-b144crgpFgYG6U-15" value="" style="rounded=1;whiteSpace=wrap;html=1;fillColor=default;strokeColor=#6c8ebf;textOpacity=50;gradientColor=#CCE5FF;gradientDirection=radial;glass=0;opacity=50;" vertex="1" parent="1">
          <mxGeometry x="200" y="439" width="1280" height="111" as="geometry" />
        </mxCell>
        <mxCell id="2LB2E-b144crgpFgYG6U-4" value="&lt;font face=&quot;Times New Roman&quot; color=&quot;#ffffff&quot;&gt;&lt;span style=&quot;font-size: 22px;&quot;&gt;CutMix数据增强&lt;/span&gt;&lt;/font&gt;" style="rounded=1;whiteSpace=wrap;html=1;fillColor=light-dark(#0066CC,#003366);strokeColor=#99CCFF;gradientColor=#003366;" vertex="1" parent="1">
          <mxGeometry x="360" y="450" width="200" height="40" as="geometry" />
        </mxCell>
        <mxCell id="2LB2E-b144crgpFgYG6U-16" value="&lt;font face=&quot;Times New Roman&quot; color=&quot;#ffffff&quot;&gt;&lt;span style=&quot;font-size: 22px;&quot;&gt;双视角特征提取器&lt;/span&gt;&lt;/font&gt;" style="rounded=1;whiteSpace=wrap;html=1;fillColor=light-dark(#0066CC,#003366);strokeColor=#99CCFF;gradientColor=#003366;" vertex="1" parent="1">
          <mxGeometry x="580" y="450" width="200" height="40" as="geometry" />
        </mxCell>
        <mxCell id="2LB2E-b144crgpFgYG6U-17" value="&lt;font face=&quot;Times New Roman&quot; color=&quot;#ffffff&quot;&gt;&lt;span style=&quot;font-size: 22px;&quot;&gt;联合训练策略：监督对比学习优化&lt;/span&gt;&lt;/font&gt;" style="rounded=1;whiteSpace=wrap;html=1;fillColor=light-dark(#0066CC,#003366);strokeColor=#99CCFF;gradientColor=#003366;" vertex="1" parent="1">
          <mxGeometry x="360" y="500" width="420" height="40" as="geometry" />
        </mxCell>
        <mxCell id="2LB2E-b144crgpFgYG6U-18" value="&lt;font face=&quot;Times New Roman&quot;&gt;DVSF&lt;/font&gt;" style="rounded=1;whiteSpace=wrap;html=1;fontSize=25;convertToSvg=1;fillColor=none;strokeColor=none;fontStyle=1" vertex="1" parent="1">
          <mxGeometry x="217.5" y="465" width="120" height="60" as="geometry" />
        </mxCell>
        <mxCell id="2LB2E-b144crgpFgYG6U-19" value="&lt;font face=&quot;Times New Roman&quot; color=&quot;#ffffff&quot;&gt;&lt;span style=&quot;font-size: 22px;&quot;&gt;特征提取共享&lt;/span&gt;&lt;/font&gt;" style="rounded=1;whiteSpace=wrap;html=1;fillColor=light-dark(#0066CC,#003366);strokeColor=#99CCFF;gradientColor=#003366;" vertex="1" parent="1">
          <mxGeometry x="1030" y="474.5" width="200" height="40" as="geometry" />
        </mxCell>
        <mxCell id="2LB2E-b144crgpFgYG6U-20" value="&lt;font face=&quot;Times New Roman&quot; color=&quot;#ffffff&quot;&gt;&lt;span style=&quot;font-size: 22px;&quot;&gt;域感知学习&lt;/span&gt;&lt;/font&gt;" style="rounded=1;whiteSpace=wrap;html=1;fillColor=light-dark(#0066CC,#003366);strokeColor=#99CCFF;gradientColor=#003366;" vertex="1" parent="1">
          <mxGeometry x="1240" y="474.5" width="220" height="40" as="geometry" />
        </mxCell>
        <mxCell id="2LB2E-b144crgpFgYG6U-22" value="&lt;font face=&quot;Times New Roman&quot;&gt;DAEF-VS&lt;/font&gt;" style="rounded=1;whiteSpace=wrap;html=1;fontSize=25;convertToSvg=1;fillColor=none;strokeColor=none;fontStyle=1" vertex="1" parent="1">
          <mxGeometry x="880" y="465" width="120" height="60" as="geometry" />
        </mxCell>
        <mxCell id="2LB2E-b144crgpFgYG6U-23" value="" style="rounded=1;whiteSpace=wrap;html=1;fillColor=default;strokeColor=#6c8ebf;textOpacity=50;gradientColor=#CCE5FF;gradientDirection=radial;glass=0;opacity=50;" vertex="1" parent="1">
          <mxGeometry x="200" y="370" width="1280" height="60" as="geometry" />
        </mxCell>
        <mxCell id="2LB2E-b144crgpFgYG6U-24" value="&lt;font face=&quot;Times New Roman&quot;&gt;应用需求&lt;/font&gt;" style="rounded=1;whiteSpace=wrap;html=1;fontSize=25;convertToSvg=1;fillColor=none;strokeColor=none;fontStyle=1" vertex="1" parent="1">
          <mxGeometry x="220" y="371" width="120" height="60" as="geometry" />
        </mxCell>
        <mxCell id="2LB2E-b144crgpFgYG6U-25" value="&lt;font face=&quot;Times New Roman&quot;&gt;应用需求&lt;/font&gt;" style="rounded=1;whiteSpace=wrap;html=1;fontSize=25;convertToSvg=1;fillColor=none;strokeColor=none;fontStyle=1" vertex="1" parent="1">
          <mxGeometry x="880" y="370" width="120" height="60" as="geometry" />
        </mxCell>
        <mxCell id="2LB2E-b144crgpFgYG6U-26" value="&lt;font face=&quot;Times New Roman&quot; style=&quot;color: rgb(255, 255, 255); font-size: 22px;&quot;&gt;实现近实时监控要求&lt;/font&gt;" style="rounded=1;whiteSpace=wrap;html=1;fillColor=light-dark(#007FFF,#003366);strokeColor=#6c8ebf;gradientColor=#0066CC;" vertex="1" parent="1">
          <mxGeometry x="360" y="379" width="420" height="40" as="geometry" />
        </mxCell>
        <mxCell id="2LB2E-b144crgpFgYG6U-28" value="&lt;font face=&quot;Times New Roman&quot; color=&quot;#ffffff&quot;&gt;&lt;span style=&quot;font-size: 22px;&quot;&gt;实现跨域检测&lt;/span&gt;&lt;/font&gt;" style="rounded=1;whiteSpace=wrap;html=1;fillColor=light-dark(#007FFF,#003366);strokeColor=#6c8ebf;gradientColor=#0066CC;" vertex="1" parent="1">
          <mxGeometry x="1030" y="381" width="200" height="40" as="geometry" />
        </mxCell>
        <mxCell id="2LB2E-b144crgpFgYG6U-29" value="&lt;font face=&quot;Times New Roman&quot; style=&quot;color: rgb(255, 255, 255); font-size: 16px;&quot;&gt;提升面对未知攻击的防御能力&lt;/font&gt;" style="rounded=1;whiteSpace=wrap;html=1;fillColor=light-dark(#007FFF,#003366);strokeColor=#6c8ebf;gradientColor=#0066CC;" vertex="1" parent="1">
          <mxGeometry x="1240" y="381" width="220" height="40" as="geometry" />
        </mxCell>
        <mxCell id="2LB2E-b144crgpFgYG6U-34" value="" style="rounded=1;whiteSpace=wrap;html=1;fillColor=default;strokeColor=#6c8ebf;textOpacity=50;gradientColor=#CCE5FF;gradientDirection=radial;glass=0;opacity=50;" vertex="1" parent="1">
          <mxGeometry x="200" y="300" width="1280" height="60" as="geometry" />
        </mxCell>
        <mxCell id="2LB2E-b144crgpFgYG6U-35" value="&lt;font face=&quot;Times New Roman&quot;&gt;难检测场景&lt;/font&gt;" style="rounded=1;whiteSpace=wrap;html=1;fontSize=25;convertToSvg=1;fillColor=none;strokeColor=none;fontStyle=1" vertex="1" parent="1">
          <mxGeometry x="220" y="301" width="120" height="60" as="geometry" />
        </mxCell>
        <mxCell id="2LB2E-b144crgpFgYG6U-36" value="&lt;font face=&quot;Times New Roman&quot;&gt;非同分布场景&lt;/font&gt;" style="rounded=1;whiteSpace=wrap;html=1;fontSize=25;convertToSvg=1;fillColor=none;strokeColor=none;fontStyle=1" vertex="1" parent="1">
          <mxGeometry x="880" y="300" width="120" height="60" as="geometry" />
        </mxCell>
        <mxCell id="2LB2E-b144crgpFgYG6U-37" value="&lt;font style=&quot;color: rgb(255, 255, 255); font-size: 22px;&quot;&gt;未知隐写算法的泛化问题&lt;/font&gt;" style="rounded=1;whiteSpace=wrap;html=1;fillColor=light-dark(#66B2FF,#007FFF);strokeColor=#6c8ebf;fontFamily=Times New Roman;textShadow=1;fillStyle=auto;gradientColor=#3399FF;labelBorderColor=default;" vertex="1" parent="1">
          <mxGeometry x="1030" y="310" width="430" height="40" as="geometry" />
        </mxCell>
        <mxCell id="2LB2E-b144crgpFgYG6U-38" value="&lt;font color=&quot;#ffffff&quot;&gt;&lt;span style=&quot;font-size: 22px;&quot;&gt;低嵌入率&lt;/span&gt;&lt;/font&gt;" style="rounded=1;whiteSpace=wrap;html=1;fillColor=light-dark(#66B2FF,#007FFF);strokeColor=#6c8ebf;fontFamily=Times New Roman;textShadow=1;fillStyle=auto;gradientColor=#3399FF;" vertex="1" parent="1">
          <mxGeometry x="360" y="310" width="200" height="40" as="geometry" />
        </mxCell>
        <mxCell id="2LB2E-b144crgpFgYG6U-39" value="&lt;font color=&quot;#ffffff&quot; style=&quot;font-size: 22px;&quot;&gt;短语音时长&lt;/font&gt;" style="rounded=1;whiteSpace=wrap;html=1;fillColor=light-dark(#66B2FF,#007FFF);strokeColor=#6c8ebf;fontFamily=Times New Roman;textShadow=1;fillStyle=auto;gradientColor=#3399FF;" vertex="1" parent="1">
          <mxGeometry x="580" y="310" width="200" height="40" as="geometry" />
        </mxCell>
        <mxCell id="2LB2E-b144crgpFgYG6U-42" value="" style="html=1;shadow=0;dashed=0;align=center;verticalAlign=middle;shape=mxgraph.arrows2.arrow;dy=0.54;dx=18.16;notch=11.71;rotation=90;fillColor=#FFFFFF;gradientColor=light-dark(#003366,#003366);strokeColor=#6c8ebf;gradientDirection=east;" vertex="1" parent="1">
          <mxGeometry x="255" y="345" width="45" height="45" as="geometry" />
        </mxCell>
        <mxCell id="2LB2E-b144crgpFgYG6U-43" value="" style="html=1;shadow=0;dashed=0;align=center;verticalAlign=middle;shape=mxgraph.arrows2.arrow;dy=0.54;dx=18.16;notch=11.71;rotation=90;fillColor=#FFFFFF;gradientColor=light-dark(#003366,#003366);strokeColor=#6c8ebf;gradientDirection=east;" vertex="1" parent="1">
          <mxGeometry x="255" y="420" width="45" height="45" as="geometry" />
        </mxCell>
        <mxCell id="2LB2E-b144crgpFgYG6U-45" value="" style="html=1;shadow=0;dashed=0;align=center;verticalAlign=middle;shape=mxgraph.arrows2.arrow;dy=0.54;dx=18.16;notch=11.71;rotation=90;fillColor=#FFFFFF;gradientColor=light-dark(#003366,#003366);strokeColor=#6c8ebf;gradientDirection=east;" vertex="1" parent="1">
          <mxGeometry x="918" y="345" width="45" height="45" as="geometry" />
        </mxCell>
        <mxCell id="2LB2E-b144crgpFgYG6U-46" value="" style="html=1;shadow=0;dashed=0;align=center;verticalAlign=middle;shape=mxgraph.arrows2.arrow;dy=0.54;dx=18.16;notch=11.71;rotation=90;fillColor=#FFFFFF;gradientColor=light-dark(#003366,#003366);strokeColor=#6c8ebf;gradientDirection=east;" vertex="1" parent="1">
          <mxGeometry x="918" y="420" width="45" height="45" as="geometry" />
        </mxCell>
        <mxCell id="2LB2E-b144crgpFgYG6U-53" value="" style="html=1;shadow=0;dashed=0;align=center;verticalAlign=middle;shape=mxgraph.arrows2.arrow;dy=0.54;dx=18.16;notch=11.71;rotation=90;fillColor=#FFFFFF;gradientColor=light-dark(#003366,#003366);strokeColor=#6c8ebf;gradientDirection=east;" vertex="1" parent="1">
          <mxGeometry x="255" y="270" width="45" height="45" as="geometry" />
        </mxCell>
        <mxCell id="2LB2E-b144crgpFgYG6U-54" value="" style="html=1;shadow=0;dashed=0;align=center;verticalAlign=middle;shape=mxgraph.arrows2.arrow;dy=0.54;dx=18.16;notch=11.71;rotation=90;fillColor=#FFFFFF;gradientColor=light-dark(#003366,#003366);strokeColor=#6c8ebf;gradientDirection=east;" vertex="1" parent="1">
          <mxGeometry x="918" y="270" width="45" height="45" as="geometry" />
        </mxCell>
      </root>
    </mxGraphModel>
  </diagram>
</mxfile>
